<?xml version="1.0" standalone="no"?>
<!DOCTYPE svg PUBLIC "-//W3C//DTD SVG 20010904//EN"
 "http://www.w3.org/TR/2001/REC-SVG-20010904/DTD/svg10.dtd">
<svg version="1.0" xmlns="http://www.w3.org/2000/svg"
 width="512.000000pt" height="512.000000pt" viewBox="0 0 512.000000 512.000000"
 preserveAspectRatio="xMidYMid meet">

<g transform="translate(0.000000,512.000000) scale(0.100000,-0.100000)"
fill="#000000" stroke="none">
<path d="M2380 5114 c-19 -2 -78 -9 -130 -14 -330 -36 -695 -160 -990 -336
-375 -224 -680 -529 -904 -904 -175 -292 -291 -632 -338 -990 -16 -123 -16
-497 0 -620 82 -623 356 -1150 820 -1581 256 -239 575 -425 922 -539 274 -91
491 -124 800 -124 228 0 329 9 530 50 689 141 1304 583 1674 1204 175 292 291
632 338 990 16 123 16 497 0 620 -47 358 -163 698 -338 990 -224 375 -529 680
-904 904 -289 173 -634 291 -980 336 -88 12 -438 21 -500 14z m27 -1340 c-8
-9 -760 40 -774 50 -7 5 84 221 136 324 165 330 384 562 600 637 l36 12 3
-510 c1 -281 1 -511 -1 -513z m424 976 c185 -93 376 -315 520 -602 62 -124
142 -319 134 -327 -8 -8 -419 -38 -602 -45 l-173 -6 0 515 0 514 38 -13 c22
-8 59 -24 83 -36z m-1107 -102 c-4 -7 -28 -42 -54 -78 -110 -151 -224 -375
-305 -597 -22 -60 -43 -103 -50 -103 -43 0 -490 102 -502 114 -8 7 98 126 189
212 168 160 349 285 563 390 154 76 171 83 159 62z m1831 -62 c214 -105 393
-229 564 -391 95 -90 204 -216 194 -226 -17 -15 -509 -118 -517 -108 -1 2 -20
51 -41 109 -80 222 -194 447 -305 600 -57 79 -64 90 -53 90 5 0 76 -33 158
-74z m-2838 -890 c95 -29 358 -90 457 -107 l68 -11 -5 -37 c-3 -20 -17 -97
-30 -171 -31 -163 -54 -361 -63 -532 l-7 -128 -414 0 -413 0 0 36 c0 113 57
385 117 558 50 147 181 416 202 416 4 0 44 -11 88 -24z m3878 -158 c72 -150
121 -286 159 -439 27 -112 56 -294 56 -353 l0 -36 -413 0 -414 0 -7 128 c-9
171 -32 368 -62 532 -14 74 -28 149 -31 166 l-5 32 73 12 c99 16 363 74 469
104 101 28 84 42 175 -146z m-2893 -23 c123 -13 294 -25 591 -41 l117 -6 0
-379 0 -379 -485 0 -485 0 0 53 c0 205 85 767 116 767 7 0 72 -7 146 -15z
m1878 1 c0 -2 9 -47 20 -99 41 -201 80 -519 80 -654 l0 -53 -485 0 -485 0 0
379 0 378 163 7 c192 8 600 36 606 42 6 5 101 5 101 0z m-2432 -1279 c13 -189
41 -398 73 -550 23 -105 21 -127 -11 -127 -36 0 -365 -70 -474 -100 -59 -17
-113 -30 -122 -30 -22 0 -143 253 -192 402 -61 184 -112 430 -112 542 l0 36
413 0 413 0 12 -173z m1262 -202 l0 -375 -117 0 c-144 0 -397 -15 -597 -35
-82 -9 -150 -14 -151 -13 -2 2 -15 60 -29 130 -31 153 -62 390 -72 551 l-7
117 487 0 486 0 0 -375z m1266 258 c-10 -161 -41 -402 -72 -553 -14 -69 -28
-128 -29 -131 -2 -3 -35 -2 -72 3 -158 19 -421 38 -600 45 l-193 6 0 374 0
373 486 0 487 0 -7 -117z m1134 81 c0 -113 -51 -358 -112 -544 -53 -159 -183
-424 -204 -416 -71 27 -574 146 -618 146 -2 0 5 39 15 88 32 144 68 404 81
588 l12 174 413 0 413 0 0 -36z m-2400 -1524 c0 -280 -2 -510 -4 -510 -9 0
-85 33 -131 57 -182 96 -376 324 -511 601 -51 106 -137 313 -131 318 3 2 381
33 462 37 33 2 117 4 188 5 l127 2 0 -510z m835 485 c88 -8 179 -17 202 -20
l41 -6 -38 -98 c-153 -393 -377 -694 -605 -814 -46 -24 -122 -57 -131 -57 -2
0 -4 230 -4 511 l0 512 188 -7 c103 -4 259 -14 347 -21z m-1899 -118 c83 -251
209 -490 393 -748 14 -20 13 -20 -37 0 -233 92 -500 266 -702 458 -91 87 -217
230 -209 237 16 13 517 116 531 109 3 -2 14 -27 24 -56z m2574 28 c119 -23
383 -86 393 -94 11 -10 -103 -140 -208 -238 -195 -183 -461 -355 -687 -444
-50 -20 -51 -20 -37 0 184 258 310 497 393 748 15 46 21 52 39 48 12 -2 60
-11 107 -20z"/>
</g>
</svg>
